<?xml version="1.0" encoding="UTF-8" standalone="no"?>
<!DOCTYPE svg PUBLIC "-//W3C//DTD SVG 1.1//EN" "http://www.w3.org/Graphics/SVG/1.1/DTD/svg11.dtd">
<svg xmlns="http://www.w3.org/2000/svg" version="1.1" xmlns:xl="http://www.w3.org/1999/xlink" xmlns:dc="http://purl.org/dc/elements/1.1/" viewBox="101 379 766 443" width="766" height="443">
  <defs>
    <clipPath id="inner_stroke_clip_path">
      <path d="M 433.5 503.29934 L 537.5 503.29934 L 537.5 598.29934 L 433.5 598.29934 Z"/>
    </clipPath>
    <clipPath id="inner_stroke_clip_path_2">
      <path d="M 737.5 579.04276 L 841.5 579.04276 L 841.5 674.0428 L 737.5 674.0428 Z"/>
    </clipPath>
    <clipPath id="inner_stroke_clip_path_3">
      <path d="M 585.5 693.1678 L 689.5 693.1678 L 689.5 788.1678 L 585.5 788.1678 Z"/>
    </clipPath>
    <clipPath id="inner_stroke_clip_path_4">
      <path d="M 250 693.1678 L 354 693.1678 L 354 788.1678 L 250 788.1678 Z"/>
    </clipPath>
    <clipPath id="inner_stroke_clip_path_5">
      <path d="M 249.6111 579.04276 L 353.6111 579.04276 L 353.6111 674.0428 L 249.6111 674.0428 Z"/>
    </clipPath>
    <clipPath id="inner_stroke_clip_path_6">
      <path d="M 249.6111 464.09935 L 353.6111 464.09935 L 353.6111 559.09935 L 249.6111 559.09935 Z"/>
    </clipPath>
    <clipPath id="inner_stroke_clip_path_7">
      <path d="M 117.5 598.54276 L 209.5 598.54276 L 209.5 654.5428 L 117.5 654.5428 Z"/>
    </clipPath>
  </defs>
  <g id="236737319_Update_diagram_2_in_Encryption_at_Rest" stroke-dasharray="none" fill="none" stroke="none" fill-opacity="1" stroke-opacity="1">
    <title>236737319_Update diagram 2 in Encryption at Rest</title>
    <g id="236737319_Update_diagram_2_in_Encryption_at_Rest_Layer_1">
      <title>Layer 1</title>
      <g id="Group_543">
        <g id="Graphic_518">
          <title>zone external - blue</title>
          <rect x="571.5" y="450.36513" width="132" height="357.80263" fill="#e1f6fe"/>
          <text transform="translate(581.5 465.36513)" fill="#757575">
            <tspan font-family="Roboto" font-size="10" fill="#757575" x="0" y="9">Google’s storage </tspan>
            <tspan font-family="Roboto" font-size="10" fill="#757575" x="0" y="20">infrastructure</tspan>
          </text>
        </g>
        <g id="Graphic_519">
          <title>zone external - blue</title>
          <rect x="724.5" y="450.36513" width="132" height="357.80263" fill="#e1f6fe"/>
          <text transform="translate(734.5 465.36513)" fill="#757575">
            <tspan font-family="Roboto" font-size="10" fill="#757575" x="0" y="9">Google’s storage </tspan>
            <tspan font-family="Roboto" font-size="10" fill="#757575" x="0" y="20">infrastructure</tspan>
          </text>
        </g>
        <g id="Graphic_517">
          <title>zone external - blue</title>
          <rect x="419.5" y="450.36513" width="132" height="357.80263" fill="#e1f6fe"/>
          <text transform="translate(429.5 465.36513)" fill="#757575">
            <tspan font-family="Roboto" font-size="10" fill="#757575" x="0" y="9">Google’s storage </tspan>
            <tspan font-family="Roboto" font-size="10" fill="#757575" x="0" y="20">infrastructure</tspan>
          </text>
        </g>
        <g id="Graphic_139">
          <text transform="translate(116.5 394.50987)" fill="#212121">
            <tspan font-family="Roboto" font-size="12" fill="#212121" x="2.1640625" y="11">Data is uploaded</tspan>
            <tspan font-family="Roboto" font-size="12" fill="#212121" x="21.066406" y="25">to Google</tspan>
          </text>
        </g>
        <g id="Graphic_138">
          <text transform="translate(223.13537 394.50987)" fill="#212121">
            <tspan font-family="Roboto" font-size="12" fill="#212121" x="2.4111328" y="11">Data is chunked and each chunk </tspan>
            <tspan font-family="Roboto" font-size="12" fill="#212121" x="11.683594" y="25">is encrypted with its own key</tspan>
          </text>
        </g>
        <g id="Graphic_116">
          <path d="M 228.9875 433.00987 L 395.03322 433.00987 C 395.29674 433.00987 395.51037 432.786 395.51037 432.50987 C 395.51037 432.2337 395.29674 432.00987 395.03322 432.00987 L 228.9875 432.00987 C 228.724 432.00987 228.51037 432.2337 228.51037 432.50987 C 228.51037 432.786 228.724 433.00987 228.9875 433.00987 Z" fill="#616161"/>
        </g>
        <g id="Graphic_115">
          <path d="M 117.5 433.16776 L 209.5 433.16776 C 209.77614 433.16776 210 432.9439 210 432.66776 C 210 432.3916 209.77614 432.16776 209.5 432.16776 L 117.5 432.16776 C 117.22386 432.16776 117 432.3916 117 432.66776 C 117 432.9439 117.22386 433.16776 117.5 433.16776 Z" fill="#616161"/>
        </g>
        <g id="Graphic_331">
          <text transform="translate(519.5399 394.50987)" fill="#212121">
            <tspan font-family="Roboto" font-size="12" fill="#212121" x="13.34291" y="11">Chunks are distributed across Google’s </tspan>
            <tspan font-family="Roboto" font-size="12" fill="#212121" x="59.81947" y="25">storage infrastructure</tspan>
          </text>
        </g>
        <g id="Graphic_337">
          <path d="M 420 434.83224 L 856 434.83224 C 856.2761 434.83224 856.5 434.6084 856.5 434.33224 C 856.5 434.0561 856.2761 433.83224 856 433.83224 L 420 433.83224 C 419.72386 433.83224 419.5 434.0561 419.5 434.33224 C 419.5 434.6084 419.72386 434.83224 420 434.83224 Z" fill="#616161"/>
        </g>
        <g id="Graphic_537">
          <path d="M 240.1 740.1678 L 235.1 740.1678 L 231.19603 740.1773 L 230.5 740.1773 L 231 740.6773 L 231 511.59935 L 230.5 512.09935 L 239.71111 512.09935 C 239.98726 512.09935 240.21111 511.8755 240.21111 511.59935 C 240.21111 511.3232 239.98726 511.09935 239.71111 511.09935 L 230.5 511.09935 C 230.22386 511.09935 230 511.3232 230 511.59935 L 230 740.6773 C 230 740.95345 230.22386 741.1773 230.5 741.1773 L 231.19725 741.1773 L 235.10122 741.1678 L 240.1 741.1678 C 240.37614 741.1678 240.6 740.9439 240.6 740.6678 C 240.6 740.3916 240.37614 740.1678 240.1 740.1678 Z M 247.7111 511.09935 L 239.71111 511.09935 L 239.71111 512.09935 L 247.7111 512.09935 Z M 243.35756 507.9529 L 247.35756 511.9529 L 247.35756 511.2458 L 243.35756 515.2458 L 244.06467 515.9529 L 248.06467 511.9529 L 248.41822 511.59935 L 248.06467 511.2458 L 244.06467 507.2458 Z M 248.1 740.1678 L 240.1 740.1678 L 240.1 741.1678 L 248.1 741.1678 Z M 243.74645 737.0213 L 247.74645 741.0213 L 247.74645 740.3142 L 243.74645 744.3142 L 244.45355 745.0213 L 248.45355 741.0213 L 248.8071 740.6678 L 248.45355 740.3142 L 244.45355 736.3142 Z" fill="#616161"/>
        </g>
        <g id="Graphic_538">
          <path d="M 209.5 627.0428 L 239.71111 627.0428 C 239.98726 627.0428 240.21111 626.8189 240.21111 626.5428 C 240.21111 626.2666 239.98726 626.0428 239.71111 626.0428 L 209.5 626.0428 C 209.22386 626.0428 209 626.2666 209 626.5428 C 209 626.8189 209.22386 627.0428 209.5 627.0428 Z M 247.7111 626.0428 L 239.71111 626.0428 L 239.71111 627.0428 L 247.7111 627.0428 Z M 243.35756 622.8963 L 247.35756 626.8963 L 247.35756 626.1892 L 243.35756 630.1892 L 244.06467 630.8963 L 248.06467 626.8963 L 248.41822 626.5428 L 248.06467 626.1892 L 244.06467 622.1892 Z" fill="#616161"/>
        </g>
        <g id="Graphic_539">
          <path d="M 353.6111 512.09935 L 385.4393 512.09935 L 384.9393 511.59935 L 384.9393 550.79934 C 384.9393 551.0755 385.16316 551.29934 385.4393 551.29934 L 423.6 551.29934 C 423.87614 551.29934 424.1 551.0755 424.1 550.79934 C 424.1 550.5232 423.87614 550.29934 423.6 550.29934 L 385.4393 550.29934 L 385.9393 550.79934 L 385.9393 511.59935 C 385.9393 511.3232 385.71545 511.09935 385.4393 511.09935 L 353.6111 511.09935 C 353.33497 511.09935 353.1111 511.3232 353.1111 511.59935 C 353.1111 511.8755 353.33497 512.09935 353.6111 512.09935 Z M 431.6 550.29934 L 423.6 550.29934 L 423.6 551.29934 L 431.6 551.29934 Z M 427.24645 547.1529 L 431.24645 551.1529 L 431.24645 550.4458 L 427.24645 554.4458 L 427.95355 555.1529 L 431.95355 551.1529 L 432.3071 550.79934 L 431.95355 550.4458 L 427.95355 546.4458 Z" fill="#616161"/>
        </g>
        <g id="Graphic_540">
          <path d="M 353.6111 627.0428 L 727.6 627.0428 C 727.8761 627.0428 728.1 626.8189 728.1 626.5428 C 728.1 626.2666 727.8761 626.0428 727.6 626.0428 L 353.6111 626.0428 C 353.33497 626.0428 353.1111 626.2666 353.1111 626.5428 C 353.1111 626.8189 353.33497 627.0428 353.6111 627.0428 Z M 735.6 626.0428 L 727.6 626.0428 L 727.6 627.0428 L 735.6 627.0428 Z M 731.24645 622.8963 L 735.24645 626.8963 L 735.24645 626.1892 L 731.24645 630.1892 L 731.95355 630.8963 L 735.95355 626.8963 L 736.3071 626.5428 L 735.95355 626.1892 L 731.95355 622.1892 Z" fill="#616161"/>
        </g>
        <g id="Graphic_541">
          <path d="M 354 741.1678 L 575.6 741.1678 C 575.87614 741.1678 576.1 740.9439 576.1 740.6678 C 576.1 740.3916 575.87614 740.1678 575.6 740.1678 L 354 740.1678 C 353.72386 740.1678 353.5 740.3916 353.5 740.6678 C 353.5 740.9439 353.72386 741.1678 354 741.1678 Z M 583.6 740.1678 L 575.6 740.1678 L 575.6 741.1678 L 583.6 741.1678 Z M 579.24645 737.0213 L 583.24645 741.0213 L 583.24645 740.3142 L 579.24645 744.3142 L 579.95355 745.0213 L 583.95355 741.0213 L 584.3071 740.6678 L 583.95355 740.3142 L 579.95355 736.3142 Z" fill="#616161"/>
        </g>
        <g id="Group_469">
          <g id="Graphic_480">
            <rect x="433.5" y="503.29934" width="104" height="95" fill="white"/>
            <rect x="433.5" y="503.29934" width="104" height="95" stroke="#dfdfdf" stroke-linecap="round" stroke-linejoin="round" stroke-width="2" clip-path="url(#inner_stroke_clip_path)"/>
          </g>
          <g id="Graphic_479">
            <rect x="449.5" y="557.29934" width="72" height="1" fill="#dfdfdf"/>
          </g>
          <g id="Group_473">
            <g id="Graphic_478">
              <text transform="translate(486.5 517.29934)" fill="#212121">
                <tspan font-family="Roboto" font-size="12" fill="#212121" x="0" y="11">Data</tspan>
                <tspan font-family="Roboto" font-size="12" fill="#212121" x="0" y="25">chunk </tspan>
              </text>
            </g>
            <g id="Group_474">
              <g id="Graphic_477">
                <path d="M 449.4 521.3858 L 449.4 526.3426 L 474.4 526.3426 L 474.4 521.3858 Z M 454.4 525.1034 L 451.9 525.1034 L 451.9 522.625 L 454.4 522.625 Z" fill="#616161"/>
              </g>
              <g id="Graphic_476">
                <path d="M 449.4 528.82096 L 449.4 533.7777 L 474.4 533.7777 L 474.4 528.82096 Z M 454.4 532.5385 L 451.9 532.5385 L 451.9 530.06015 L 454.4 530.06015 Z" fill="#616161"/>
              </g>
              <g id="Graphic_475">
                <path d="M 449.4 536.2561 L 449.4 541.21286 L 474.4 541.21286 L 474.4 536.2561 Z M 454.4 539.9737 L 451.9 539.9737 L 451.9 537.4953 L 454.4 537.4953 Z" fill="#616161"/>
              </g>
            </g>
          </g>
          <g id="Group_470">
            <g id="Graphic_472">
              <path d="M 471.0318 575.7539 C 470.3609 573.8475 468.54455 572.48116 466.4091 572.48116 C 463.7009 572.48116 461.5 574.6821 461.5 577.39025 C 461.5 580.0984 463.7009 582.29934 466.4091 582.29934 C 468.54455 582.29934 470.3609 580.933 471.0318 579.0266 L 474.5909 579.0266 L 474.5909 582.29934 L 477.86364 582.29934 L 477.86364 579.0266 L 479.5 579.0266 L 479.5 575.7539 Z M 466.4091 579.0266 C 465.5091 579.0266 464.7727 578.29025 464.7727 577.39025 C 464.7727 576.49025 465.5091 575.7539 466.4091 575.7539 C 467.3091 575.7539 468.04545 576.49025 468.04545 577.39025 C 468.04545 578.29025 467.3091 579.0266 466.4091 579.0266 Z" fill="#616161"/>
            </g>
            <g id="Graphic_471">
              <text transform="translate(487.5 571.89025)" fill="#757575">
                <tspan font-family="Roboto" font-size="10" fill="#757575" x="0" y="9">DEK</tspan>
              </text>
            </g>
          </g>
        </g>
        <g id="Group_481">
          <g id="Graphic_492">
            <rect x="737.5" y="579.04276" width="104" height="95" fill="white"/>
            <rect x="737.5" y="579.04276" width="104" height="95" stroke="#dfdfdf" stroke-linecap="round" stroke-linejoin="round" stroke-width="2" clip-path="url(#inner_stroke_clip_path_2)"/>
          </g>
          <g id="Graphic_491">
            <rect x="753.5" y="633.0428" width="72" height="1" fill="#dfdfdf"/>
          </g>
          <g id="Group_485">
            <g id="Graphic_490">
              <text transform="translate(790.5 593.04276)" fill="#212121">
                <tspan font-family="Roboto" font-size="12" fill="#212121" x="0" y="11">Data</tspan>
                <tspan font-family="Roboto" font-size="12" fill="#212121" x="0" y="25">chunk </tspan>
              </text>
            </g>
            <g id="Group_486">
              <g id="Graphic_489">
                <path d="M 753.4 597.12924 L 753.4 602.086 L 778.4 602.086 L 778.4 597.12924 Z M 758.4 600.8468 L 755.9 600.8468 L 755.9 598.3684 L 758.4 598.3684 Z" fill="#616161"/>
              </g>
              <g id="Graphic_488">
                <path d="M 753.4 604.5644 L 753.4 609.52114 L 778.4 609.52114 L 778.4 604.5644 Z M 758.4 608.28195 L 755.9 608.28195 L 755.9 605.8036 L 758.4 605.8036 Z" fill="#616161"/>
              </g>
              <g id="Graphic_487">
                <path d="M 753.4 611.9995 L 753.4 616.9563 L 778.4 616.9563 L 778.4 611.9995 Z M 758.4 615.7171 L 755.9 615.7171 L 755.9 613.2387 L 758.4 613.2387 Z" fill="#616161"/>
              </g>
            </g>
          </g>
          <g id="Group_482">
            <g id="Graphic_484">
              <path d="M 775.0318 651.4973 C 774.3609 649.59095 772.5445 648.2246 770.4091 648.2246 C 767.7009 648.2246 765.5 650.4255 765.5 653.1337 C 765.5 655.84186 767.7009 658.0428 770.4091 658.0428 C 772.5445 658.0428 774.3609 656.6764 775.0318 654.77 L 778.5909 654.77 L 778.5909 658.0428 L 781.8636 658.0428 L 781.8636 654.77 L 783.5 654.77 L 783.5 651.4973 Z M 770.4091 654.77 C 769.5091 654.77 768.7727 654.0337 768.7727 653.1337 C 768.7727 652.2337 769.5091 651.4973 770.4091 651.4973 C 771.3091 651.4973 772.0455 652.2337 772.0455 653.1337 C 772.0455 654.0337 771.3091 654.77 770.4091 654.77 Z" fill="#616161"/>
            </g>
            <g id="Graphic_483">
              <text transform="translate(791.5 647.6337)" fill="#757575">
                <tspan font-family="Roboto" font-size="10" fill="#757575" x="0" y="9">DEK</tspan>
              </text>
            </g>
          </g>
        </g>
        <g id="Group_493">
          <g id="Graphic_504">
            <rect x="585.5" y="693.1678" width="104" height="95" fill="white"/>
            <rect x="585.5" y="693.1678" width="104" height="95" stroke="#dfdfdf" stroke-linecap="round" stroke-linejoin="round" stroke-width="2" clip-path="url(#inner_stroke_clip_path_3)"/>
          </g>
          <g id="Graphic_503">
            <rect x="601.5" y="747.1678" width="72" height="1" fill="#dfdfdf"/>
          </g>
          <g id="Group_497">
            <g id="Graphic_502">
              <text transform="translate(638.5 707.1678)" fill="#212121">
                <tspan font-family="Roboto" font-size="12" fill="#212121" x="0" y="11">Data</tspan>
                <tspan font-family="Roboto" font-size="12" fill="#212121" x="0" y="25">chunk </tspan>
              </text>
            </g>
            <g id="Group_498">
              <g id="Graphic_501">
                <path d="M 601.4 711.2542 L 601.4 716.211 L 626.4 716.211 L 626.4 711.2542 Z M 606.4 714.9718 L 603.9 714.9718 L 603.9 712.4934 L 606.4 712.4934 Z" fill="#616161"/>
              </g>
              <g id="Graphic_500">
                <path d="M 601.4 718.6894 L 601.4 723.6461 L 626.4 723.6461 L 626.4 718.6894 Z M 606.4 722.40695 L 603.9 722.40695 L 603.9 719.9286 L 606.4 719.9286 Z" fill="#616161"/>
              </g>
              <g id="Graphic_499">
                <path d="M 601.4 726.1245 L 601.4 731.0813 L 626.4 731.0813 L 626.4 726.1245 Z M 606.4 729.8421 L 603.9 729.8421 L 603.9 727.3637 L 606.4 727.3637 Z" fill="#616161"/>
              </g>
            </g>
          </g>
          <g id="Group_494">
            <g id="Graphic_496">
              <path d="M 623.0318 765.6223 C 622.3609 763.7159 620.54455 762.3496 618.4091 762.3496 C 615.7009 762.3496 613.5 764.5505 613.5 767.2587 C 613.5 769.96685 615.7009 772.1678 618.4091 772.1678 C 620.54455 772.1678 622.3609 770.8014 623.0318 768.895 L 626.5909 768.895 L 626.5909 772.1678 L 629.8636 772.1678 L 629.8636 768.895 L 631.5 768.895 L 631.5 765.6223 Z M 618.4091 768.895 C 617.5091 768.895 616.7727 768.1587 616.7727 767.2587 C 616.7727 766.3587 617.5091 765.6223 618.4091 765.6223 C 619.3091 765.6223 620.04545 766.3587 620.04545 767.2587 C 620.04545 768.1587 619.3091 768.895 618.4091 768.895 Z" fill="#616161"/>
            </g>
            <g id="Graphic_495">
              <text transform="translate(639.5 761.7587)" fill="#757575">
                <tspan font-family="Roboto" font-size="10" fill="#757575" x="0" y="9">DEK</tspan>
              </text>
            </g>
          </g>
        </g>
        <g id="Group_457">
          <g id="Graphic_468">
            <rect x="250" y="693.1678" width="104" height="95" fill="white"/>
            <rect x="250" y="693.1678" width="104" height="95" stroke="#dfdfdf" stroke-linecap="round" stroke-linejoin="round" stroke-width="2" clip-path="url(#inner_stroke_clip_path_4)"/>
          </g>
          <g id="Graphic_467">
            <rect x="266" y="747.1678" width="72" height="1" fill="#dfdfdf"/>
          </g>
          <g id="Group_461">
            <g id="Graphic_466">
              <text transform="translate(303 707.1678)" fill="#212121">
                <tspan font-family="Roboto" font-size="12" fill="#212121" x="0" y="11">Data</tspan>
                <tspan font-family="Roboto" font-size="12" fill="#212121" x="0" y="25">chunk </tspan>
              </text>
            </g>
            <g id="Group_462">
              <g id="Graphic_465">
                <path d="M 265.89998 711.2542 L 265.89998 716.211 L 290.89998 716.211 L 290.89998 711.2542 Z M 270.89998 714.9718 L 268.39998 714.9718 L 268.39998 712.4934 L 270.89998 712.4934 Z" fill="#616161"/>
              </g>
              <g id="Graphic_464">
                <path d="M 265.89998 718.6894 L 265.89998 723.6461 L 290.89998 723.6461 L 290.89998 718.6894 Z M 270.89998 722.40695 L 268.39998 722.40695 L 268.39998 719.9286 L 270.89998 719.9286 Z" fill="#616161"/>
              </g>
              <g id="Graphic_463">
                <path d="M 265.89998 726.1245 L 265.89998 731.0813 L 290.89998 731.0813 L 290.89998 726.1245 Z M 270.89998 729.8421 L 268.39998 729.8421 L 268.39998 727.3637 L 270.89998 727.3637 Z" fill="#616161"/>
              </g>
            </g>
          </g>
          <g id="Group_458">
            <g id="Graphic_460">
              <path d="M 287.53182 765.6223 C 286.8609 763.7159 285.04455 762.3496 282.9091 762.3496 C 280.2009 762.3496 278 764.5505 278 767.2587 C 278 769.96685 280.2009 772.1678 282.9091 772.1678 C 285.04455 772.1678 286.8609 770.8014 287.53182 768.895 L 291.0909 768.895 L 291.0909 772.1678 L 294.36364 772.1678 L 294.36364 768.895 L 296 768.895 L 296 765.6223 Z M 282.9091 768.895 C 282.0091 768.895 281.27273 768.1587 281.27273 767.2587 C 281.27273 766.3587 282.0091 765.6223 282.9091 765.6223 C 283.8091 765.6223 284.54545 766.3587 284.54545 767.2587 C 284.54545 768.1587 283.8091 768.895 282.9091 768.895 Z" fill="#616161"/>
            </g>
            <g id="Graphic_459">
              <text transform="translate(304 761.7587)" fill="#757575">
                <tspan font-family="Roboto" font-size="10" fill="#757575" x="0" y="9">DEK</tspan>
              </text>
            </g>
          </g>
        </g>
        <g id="Group_445">
          <g id="Graphic_456">
            <rect x="249.6111" y="579.04276" width="104" height="95" fill="white"/>
            <rect x="249.6111" y="579.04276" width="104" height="95" stroke="#dfdfdf" stroke-linecap="round" stroke-linejoin="round" stroke-width="2" clip-path="url(#inner_stroke_clip_path_5)"/>
          </g>
          <g id="Graphic_455">
            <rect x="265.6111" y="633.0428" width="72" height="1" fill="#dfdfdf"/>
          </g>
          <g id="Group_449">
            <g id="Graphic_454">
              <text transform="translate(302.6111 593.04276)" fill="#212121">
                <tspan font-family="Roboto" font-size="12" fill="#212121" x="0" y="11">Data</tspan>
                <tspan font-family="Roboto" font-size="12" fill="#212121" x="0" y="25">chunk </tspan>
              </text>
            </g>
            <g id="Group_450">
              <g id="Graphic_453">
                <path d="M 265.5111 597.12924 L 265.5111 602.086 L 290.5111 602.086 L 290.5111 597.12924 Z M 270.5111 600.8468 L 268.0111 600.8468 L 268.0111 598.3684 L 270.5111 598.3684 Z" fill="#616161"/>
              </g>
              <g id="Graphic_452">
                <path d="M 265.5111 604.5644 L 265.5111 609.52114 L 290.5111 609.52114 L 290.5111 604.5644 Z M 270.5111 608.28195 L 268.0111 608.28195 L 268.0111 605.8036 L 270.5111 605.8036 Z" fill="#616161"/>
              </g>
              <g id="Graphic_451">
                <path d="M 265.5111 611.9995 L 265.5111 616.9563 L 290.5111 616.9563 L 290.5111 611.9995 Z M 270.5111 615.7171 L 268.0111 615.7171 L 268.0111 613.2387 L 270.5111 613.2387 Z" fill="#616161"/>
              </g>
            </g>
          </g>
          <g id="Group_446">
            <g id="Graphic_448">
              <path d="M 287.14293 651.4973 C 286.47202 649.59095 284.65566 648.2246 282.5202 648.2246 C 279.81202 648.2246 277.6111 650.4255 277.6111 653.1337 C 277.6111 655.84186 279.81202 658.0428 282.5202 658.0428 C 284.65566 658.0428 286.47202 656.6764 287.14293 654.77 L 290.70202 654.77 L 290.70202 658.0428 L 293.97475 658.0428 L 293.97475 654.77 L 295.6111 654.77 L 295.6111 651.4973 Z M 282.5202 654.77 C 281.6202 654.77 280.88384 654.0337 280.88384 653.1337 C 280.88384 652.2337 281.6202 651.4973 282.5202 651.4973 C 283.4202 651.4973 284.15657 652.2337 284.15657 653.1337 C 284.15657 654.0337 283.4202 654.77 282.5202 654.77 Z" fill="#616161"/>
            </g>
            <g id="Graphic_447">
              <text transform="translate(303.6111 647.6337)" fill="#757575">
                <tspan font-family="Roboto" font-size="10" fill="#757575" x="0" y="9">DEK</tspan>
              </text>
            </g>
          </g>
        </g>
        <g id="Group_444">
          <g id="Graphic_440">
            <rect x="249.6111" y="464.09935" width="104" height="95" fill="white"/>
            <rect x="249.6111" y="464.09935" width="104" height="95" stroke="#dfdfdf" stroke-linecap="round" stroke-linejoin="round" stroke-width="2" clip-path="url(#inner_stroke_clip_path_6)"/>
          </g>
          <g id="Graphic_439">
            <rect x="265.6111" y="518.09935" width="72" height="1" fill="#dfdfdf"/>
          </g>
          <g id="Group_433">
            <g id="Graphic_438">
              <text transform="translate(302.6111 478.09935)" fill="#212121">
                <tspan font-family="Roboto" font-size="12" fill="#212121" x="0" y="11">Data</tspan>
                <tspan font-family="Roboto" font-size="12" fill="#212121" x="0" y="25">chunk </tspan>
              </text>
            </g>
            <g id="Group_434">
              <g id="Graphic_437">
                <path d="M 265.5111 482.1858 L 265.5111 487.1426 L 290.5111 487.1426 L 290.5111 482.1858 Z M 270.5111 485.9034 L 268.0111 485.9034 L 268.0111 483.425 L 270.5111 483.425 Z" fill="#616161"/>
              </g>
              <g id="Graphic_436">
                <path d="M 265.5111 489.62097 L 265.5111 494.5777 L 290.5111 494.5777 L 290.5111 489.62097 Z M 270.5111 493.33854 L 268.0111 493.33854 L 268.0111 490.86016 L 270.5111 490.86016 Z" fill="#616161"/>
              </g>
              <g id="Graphic_435">
                <path d="M 265.5111 497.0561 L 265.5111 502.01287 L 290.5111 502.01287 L 290.5111 497.0561 Z M 270.5111 500.7737 L 268.0111 500.7737 L 268.0111 498.2953 L 270.5111 498.2953 Z" fill="#616161"/>
              </g>
            </g>
          </g>
          <g id="Group_430">
            <g id="Graphic_432">
              <path d="M 287.14293 536.5539 C 286.47202 534.6475 284.65566 533.28117 282.5202 533.28117 C 279.81202 533.28117 277.6111 535.4821 277.6111 538.19026 C 277.6111 540.89844 279.81202 543.09935 282.5202 543.09935 C 284.65566 543.09935 286.47202 541.733 287.14293 539.8266 L 290.70202 539.8266 L 290.70202 543.09935 L 293.97475 543.09935 L 293.97475 539.8266 L 295.6111 539.8266 L 295.6111 536.5539 Z M 282.5202 539.8266 C 281.6202 539.8266 280.88384 539.09026 280.88384 538.19026 C 280.88384 537.29026 281.6202 536.5539 282.5202 536.5539 C 283.4202 536.5539 284.15657 537.29026 284.15657 538.19026 C 284.15657 539.09026 283.4202 539.8266 282.5202 539.8266 Z" fill="#616161"/>
            </g>
            <g id="Graphic_431">
              <text transform="translate(303.6111 532.69026)" fill="#757575">
                <tspan font-family="Roboto" font-size="10" fill="#757575" x="0" y="9">DEK</tspan>
              </text>
            </g>
          </g>
        </g>
        <g id="Group_71">
          <g id="Graphic_76">
            <rect x="117.5" y="598.54276" width="92" height="56" fill="white"/>
            <rect x="117.5" y="598.54276" width="92" height="56" stroke="#dfdfdf" stroke-linecap="round" stroke-linejoin="round" stroke-width="2" clip-path="url(#inner_stroke_clip_path_7)"/>
            <text transform="translate(169.94 619.5428)" fill="#212121">
              <tspan font-family="Roboto" font-size="12" fill="#212121" x="0" y="11">Data</tspan>
            </text>
          </g>
          <g id="Group_72">
            <g id="Graphic_75">
              <path d="M 132.5 616.62924 L 132.5 621.586 L 157.5 621.586 L 157.5 616.62924 Z M 137.5 620.3468 L 135 620.3468 L 135 617.8684 L 137.5 617.8684 Z" fill="#616161"/>
            </g>
            <g id="Graphic_74">
              <path d="M 132.5 624.0644 L 132.5 629.02114 L 157.5 629.02114 L 157.5 624.0644 Z M 137.5 627.78195 L 135 627.78195 L 135 625.3036 L 137.5 625.3036 Z" fill="#616161"/>
            </g>
            <g id="Graphic_73">
              <path d="M 132.5 631.4995 L 132.5 636.4563 L 157.5 636.4563 L 157.5 631.4995 Z M 137.5 635.2171 L 135 635.2171 L 135 632.7387 L 137.5 632.7387 Z" fill="#616161"/>
            </g>
          </g>
        </g>
      </g>
    </g>
  </g>
</svg>
